<?xml version="1.0" encoding="UTF-8" standalone="no"?> <svg width="64" height="64" viewBox="0 0 64 64" fill="none" xmlns="http://www.w3.org/2000/svg">
<path d="M52.7598 51.5H11.7598C11.3619 51.5 10.9804 51.658 10.6991 51.9393C10.4178 52.2206 10.2598 52.6022 10.2598 53C10.2598 53.3978 10.4178 53.7794 10.6991 54.0607C10.9804 54.342 11.3619 54.5 11.7598 54.5H52.7598C53.1576 54.5 53.5391 54.342 53.8204 54.0607C54.1017 53.7794 54.2598 53.3978 54.2598 53C54.2598 52.6022 54.1017 52.2206 53.8204 51.9393C53.5391 51.658 53.1576 51.5 52.7598 51.5V51.5Z" fill="black"/>
<path d="M52.7599 41H28.1499C27.7521 41 27.3705 41.158 27.0892 41.4393C26.8079 41.7206 26.6499 42.1022 26.6499 42.5C26.6499 42.8978 26.8079 43.2794 27.0892 43.5607C27.3705 43.842 27.7521 44 28.1499 44H52.7599C53.1577 44 53.5393 43.842 53.8206 43.5607C54.1019 43.2794 54.2599 42.8978 54.2599 42.5C54.2599 42.1022 54.1019 41.7206 53.8206 41.4393C53.5393 41.158 53.1577 41 52.7599 41Z" fill="black"/>
<path d="M52.7598 30.4199H11.7598C11.3619 30.4199 10.9804 30.578 10.6991 30.8593C10.4178 31.1406 10.2598 31.5221 10.2598 31.9199C10.2598 32.3177 10.4178 32.6993 10.6991 32.9806C10.9804 33.2619 11.3619 33.4199 11.7598 33.4199H52.7598C53.1576 33.4199 53.5391 33.2619 53.8204 32.9806C54.1017 32.6993 54.2598 32.3177 54.2598 31.9199C54.2598 31.5221 54.1017 31.1406 53.8204 30.8593C53.5391 30.578 53.1576 30.4199 52.7598 30.4199Z" fill="black"/>
<path d="M52.25 12.5C52.6478 12.5 53.0294 12.342 53.3107 12.0607C53.592 11.7794 53.75 11.3978 53.75 11C53.75 10.6022 53.592 10.2206 53.3107 9.93934C53.0294 9.65804 52.6478 9.5 52.25 9.5H11.25C10.8522 9.5 10.4706 9.65804 10.1893 9.93934C9.90804 10.2206 9.75 10.6022 9.75 11C9.75 11.3978 9.90804 11.7794 10.1893 12.0607C10.4706 12.342 10.8522 12.5 11.25 12.5H52.25Z" fill="black"/>
<path d="M28.1499 19.8809C27.7521 19.8809 27.3705 20.0389 27.0892 20.3202C26.8079 20.6015 26.6499 20.983 26.6499 21.3809C26.6499 21.7787 26.8079 22.1602 27.0892 22.4415C27.3705 22.7228 27.7521 22.8809 28.1499 22.8809H52.7599C53.1577 22.8809 53.5393 22.7228 53.8206 22.4415C54.1019 22.1602 54.2599 21.7787 54.2599 21.3809C54.2599 20.983 54.1019 20.6015 53.8206 20.3202C53.5393 20.0389 53.1577 19.8809 52.7599 19.8809H28.1499Z" fill="black"/>
</svg>
