<svg width="83" height="72" viewBox="0 0 83 72" fill="none" xmlns="http://www.w3.org/2000/svg">
<path d="M2.10969 36.2C2.10969 32.904 2.84569 29.96 4.31769 27.368C5.82169 24.744 7.85369 22.712 10.4137 21.272C13.0057 19.8 15.9017 19.064 19.1017 19.064C22.8457 19.064 26.1257 20.024 28.9417 21.944C31.7577 23.864 33.7257 26.52 34.8457 29.912H27.1177C26.3497 28.312 25.2617 27.112 23.8537 26.312C22.4777 25.512 20.8777 25.112 19.0537 25.112C17.1017 25.112 15.3577 25.576 13.8217 26.504C12.3177 27.4 11.1337 28.68 10.2697 30.344C9.43769 32.008 9.02169 33.96 9.02169 36.2C9.02169 38.408 9.43769 40.36 10.2697 42.056C11.1337 43.72 12.3177 45.016 13.8217 45.944C15.3577 46.84 17.1017 47.288 19.0537 47.288C20.8777 47.288 22.4777 46.888 23.8537 46.088C25.2617 45.256 26.3497 44.04 27.1177 42.44H34.8457C33.7257 45.864 31.7577 48.536 28.9417 50.456C26.1577 52.344 22.8777 53.288 19.1017 53.288C15.9017 53.288 13.0057 52.568 10.4137 51.128C7.85369 49.656 5.82169 47.624 4.31769 45.032C2.84569 42.44 2.10969 39.496 2.10969 36.2ZM69.2414 53H62.5214L47.3054 30.008V53H40.5854V19.448H47.3054L62.5214 42.488V19.448H69.2414V53Z" fill="#F5F2F2"/>
<circle cx="78" cy="48" r="5" fill="#FF9696"/>
</svg>
